<svg width="34" height="27" viewBox="0 0 34 27" fill="none" xmlns="http://www.w3.org/2000/svg">
<path d="M27.5242 14.1563L29.9743 4.40625C30.1306 3.70313 29.5572 3 28.7232 3H8.28853L7.81937 0.9375C7.66298 0.421875 7.14169 0 6.56827 0H1.2511C0.521291 0 0 0.515625 0 1.125V1.875C0 2.53125 0.521291 3 1.2511 3H4.84801L8.54918 19.125C7.66298 19.5938 7.08956 20.4375 7.08956 21.375C7.08956 22.8281 8.39279 24 10.0088 24C11.5727 24 12.928 22.8281 12.928 21.375C12.928 20.6719 12.5631 20.0156 12.0418 19.5H22.9368C22.4155 20.0156 22.1028 20.6719 22.1028 21.375C22.1028 22.8281 23.406 24 25.022 24C26.5859 24 27.9412 22.8281 27.9412 21.375C27.9412 20.3438 27.2635 19.4531 26.2731 19.0313L26.5337 17.9063C26.7423 17.2031 26.1167 16.5 25.3348 16.5H11.3642L10.9992 15H26.2731C26.8465 15 27.3678 14.6719 27.5242 14.1563Z" fill="#FFC725"/>
<circle cx="25.5" cy="17.5" r="8.5" fill="#F37335"/>
<path d="M24.639 17.0135C24.847 16.9702 25.0463 16.9398 25.237 16.9225C25.4277 16.9008 25.6118 16.89 25.7895 16.89C26.2835 16.89 26.719 16.9637 27.096 17.111C27.473 17.2583 27.7893 17.462 28.045 17.722C28.3007 17.982 28.4935 18.2875 28.6235 18.6385C28.7535 18.9852 28.8185 19.36 28.8185 19.763C28.8185 20.2613 28.7297 20.7163 28.552 21.128C28.3787 21.5397 28.136 21.8928 27.824 22.1875C27.512 22.4778 27.1415 22.7032 26.7125 22.8635C26.2878 23.0238 25.8242 23.104 25.3215 23.104C25.0268 23.104 24.7473 23.0737 24.483 23.013C24.2187 22.9523 23.9695 22.8722 23.7355 22.7725C23.5058 22.6685 23.2913 22.5515 23.092 22.4215C22.897 22.2872 22.7215 22.1463 22.5655 21.999L23.0595 21.3165C23.1635 21.1692 23.3 21.0955 23.469 21.0955C23.5773 21.0955 23.6878 21.1302 23.8005 21.1995C23.9132 21.2688 24.041 21.3447 24.184 21.427C24.3313 21.5093 24.5025 21.5852 24.6975 21.6545C24.8968 21.7238 25.1352 21.7585 25.4125 21.7585C25.7072 21.7585 25.9672 21.7108 26.1925 21.6155C26.4178 21.5202 26.6042 21.388 26.7515 21.219C26.9032 21.0457 27.0158 20.842 27.0895 20.608C27.1675 20.3697 27.2065 20.1118 27.2065 19.8345C27.2065 19.3232 27.057 18.9245 26.758 18.6385C26.4633 18.3482 26.0257 18.203 25.445 18.203C24.9987 18.203 24.5415 18.2853 24.0735 18.45L23.0725 18.164L23.8525 13.601H28.4935V14.2835C28.4935 14.5132 28.422 14.6995 28.279 14.8425C28.136 14.9855 27.8933 15.057 27.551 15.057H24.9705L24.639 17.0135Z" fill="white"/>
</svg>
